Coordinates
version=1
nRows=23
nColumns=27
inDegrees=yes

Units are S.I. units (second, meters, Newtons, ...)
If the header above contains a line with 'inDegrees', this indicates whether rotational values are in degrees (yes) or radians (no).

endheader
time	pelvis_rotation	pelvis_tilt	pelvis_list	pelvis_tx	pelvis_ty	pelvis_tz	hip_flexion_r	hip_adduction_r	hip_rotation_r	knee_angle_r	knee_rotation_r	knee_adduction_r	knee_angle_r_beta	ankle_angle_r	subtalar_angle_r	mtp_angle_r	hip_flexion_l	hip_adduction_l	hip_rotation_l	knee_angle_l	knee_rotation_l	knee_adduction_l	knee_angle_l_beta	ankle_angle_l	subtalar_angle_l	mtp_angle_l
      3.60000000	      3.08746823	    -19.91266691	     -1.35583432	      0.05672386	      0.82889700	     -1.14909592	     29.66679254	    -26.01153138	    -36.34755355	     19.74849806	     -0.07262288	     -1.92493575	      0.34467631	     -2.71224374	     18.59579664	      0.00000000	     35.42518922	    -25.44055865	    -16.96300201	     16.81487411	     -1.51258080	      7.63115670	      0.29347492	     -7.03814926	     22.16345549	      0.00000000
      3.60500000	      1.64954991	    -20.58196245	     -1.33791109	      0.05428063	      0.82840119	     -1.14893583	     31.88884931	    -25.74316666	    -33.75254121	     20.49095980	     -0.31173064	     -2.21293354	      0.35763472	     -2.59277337	     18.01667986	      0.00000000	     35.74760387	    -26.03883187	    -18.72942483	     17.27135310	     -1.25099122	      6.86156220	      0.30144198	     -6.76047693	     21.59676197	      0.00000000
      3.61000000	      3.16994539	    -20.78677845	     -0.96164658	      0.05392138	      0.82806014	     -1.14934040	     31.45401199	    -26.76929705	    -35.91612047	     20.96616139	     -0.15639182	     -1.64426522	      0.36592855	     -2.39530537	     18.38507559	      0.00000000	     36.79376762	    -25.10196509	    -16.71808039	     17.36727329	     -1.51485706	      7.54839590	      0.30311610	     -7.00165624	     21.83695362	      0.00000000
      3.61500000	      2.32238003	    -21.00981819	     -0.04808835	      0.05246173	      0.82743985	     -1.15009609	     33.21636480	    -27.71832900	    -34.11284521	     22.13002689	     -0.35840993	     -1.61465647	      0.38624183	     -2.05652059	     18.56804773	      0.00000000	     36.35017436	    -24.51699505	    -18.41957902	     17.24042753	     -1.56311018	      7.25560488	      0.30090222	     -7.05062091	     21.62459114	      0.00000000
      3.62000000	      2.56694063	    -21.75698726	     -0.24590505	      0.05049663	      0.82696381	     -1.14981045	     34.17111258	    -27.68235323	    -34.15919770	     22.56084719	     -0.38366963	     -1.55815615	      0.39376107	     -2.00845390	     18.24533275	      0.00000000	     37.79127722	    -24.73722986	    -17.61684201	     17.85378187	     -1.48122439	      7.35057134	      0.31160728	     -6.97772737	     21.55482803	      0.00000000
      3.62500000	      2.61752574	    -22.32542500	     -0.01687756	      0.04867652	      0.82638068	     -1.14996325	     35.31361900	    -28.09988159	    -33.76992645	     23.26789170	     -0.40052830	     -1.45750818	      0.40610132	     -1.85502940	     18.09576848	      0.00000000	     38.68180521	    -24.55881023	    -17.45267691	     18.22401961	     -1.48681498	      7.32049414	      0.31806915	     -6.93669830	     21.36097861	      0.00000000
      3.63000000	      2.69997981	    -22.81083442	      0.90776627	      0.04679896	      0.82559087	     -1.15077217	     36.78880383	    -29.30781575	    -32.93429986	     24.38791769	     -0.38161696	     -1.39688831	      0.42564946	     -1.49814352	     18.20419253	      0.00000000	     39.15852369	    -23.68323880	    -17.81698213	     18.32201828	     -1.58754435	      7.23805104	      0.31977954	     -7.02344634	     21.08158334	      0.00000000
      3.63500000	      2.29955669	    -23.63811115	      1.10077608	      0.04423273	      0.82477067	     -1.15086322	     38.62647004	    -29.50623843	    -31.49123547	     25.18333669	     -0.31729001	     -1.51288525	      0.43953214	     -1.36736768	     17.64970664	      0.00000000	     40.24527937	    -23.79272250	    -18.31017860	     18.94028072	     -1.46042550	      6.62679736	      0.33057026	     -6.71760005	     20.50484324	      0.00000000
      3.64000000	      3.20865638	    -24.07962417	      0.62296845	      0.04314070	      0.82433928	     -1.15035549	     38.50381794	    -29.44344574	    -33.13115403	     25.35173873	     -0.35624022	     -1.07439367	      0.44247131	     -1.39034590	     17.55460781	      0.00000000	     41.73345092	    -24.01438787	    -16.45971031	     19.50852939	     -1.42533967	      7.22940087	      0.34048807	     -6.75285374	     20.89197842	      0.00000000
      3.64500000	      2.16043020	    -24.76630559	      2.15411312	      0.04014760	      0.82312871	     -1.15151045	     41.66251067	    -30.78369513	    -29.69331732	     26.99681709	     -0.40828319	     -1.53670058	      0.47118335	     -0.99708108	     17.72567242	      0.00000000	     41.62602211	    -23.07404991	    -18.71224312	     19.51468731	     -1.51928770	      6.99153787	      0.34059555	     -6.84410337	     20.62604007	      0.00000000
      3.65000000	      1.70679722	    -25.58833357	      2.41375366	      0.03753753	      0.82213368	     -1.15153455	     43.63677429	    -30.96188642	    -28.07956771	     27.85733069	     -0.32547443	     -1.66237267	      0.48620214	     -0.82732570	     17.22854161	      0.00000000	     42.63552865	    -23.22204170	    -19.38297727	     20.12499988	     -1.34859221	      6.35391273	      0.35124751	     -6.58133569	     20.05412212	      0.00000000
      3.65500000	      2.95030686	    -26.06440335	      1.83768877	      0.03641326	      0.82162542	     -1.15100769	     43.22358926	    -31.01847596	    -30.32390156	     27.97751864	     -0.33103555	     -1.10954146	      0.48829982	     -0.84789886	     17.09054417	      0.00000000	     44.44196943	    -23.39712261	    -17.03011389	     20.80193348	     -1.33020419	      6.96601374	      0.36306223	     -6.58907175	     20.40753024	      0.00000000
      3.66000000	      2.26271865	    -26.74613927	      2.32360524	      0.03384660	      0.82049181	     -1.15116995	     45.38498522	    -31.31704568	    -28.18917930	     28.95138617	     -0.27079283	     -1.31511109	      0.50529701	     -0.66059060	     16.72143108	      0.00000000	     45.04708381	    -23.45689013	    -18.25645600	     21.30582113	     -1.16830409	      6.24746195	      0.37185673	     -6.34889166	     19.84929548	      0.00000000
      3.66500000	      1.37219391	    -27.65430629	      3.56680302	      0.03056828	      0.81895829	     -1.15184855	     48.67508414	    -32.15431483	    -24.80279771	     30.45461535	     -0.19730811	     -1.79803415	      0.53153331	     -0.35188374	     16.68254028	      0.00000000	     45.46614413	    -22.92886814	    -20.13151256	     21.61746706	     -1.17525549	      6.04781234	      0.37729598	     -6.33084906	     19.69885463	      0.00000000
      3.67000000	      2.35665449	    -28.02152464	      3.14159694	      0.02939502	      0.81828508	     -1.15144454	     48.43332643	    -32.33828181	    -26.55035557	     30.67982133	     -0.21205498	     -1.32966623	      0.53546390	     -0.34566496	     16.57264924	      0.00000000	     46.97239481	    -23.07160450	    -18.30883137	     22.26216151	     -1.15009371	      6.53797051	      0.38854802	     -6.32673808	     20.06846619	      0.00000000
      3.67500000	      1.36788107	    -28.83651054	      4.15705847	      0.02628637	      0.81671110	     -1.15184058	     51.54550184	    -32.80862861	    -23.17727629	     32.01272702	     -0.12954983	     -1.83574349	      0.55872749	     -0.13752483	     16.48508629	      0.00000000	     47.32683486	    -22.88491372	    -20.18795720	     22.67186725	     -1.06271554	      6.30592915	      0.39569873	     -6.24278020	     19.98588997	      0.00000000
      3.68000000	      1.16074503	    -29.28042681	      4.79212148	      0.02429632	      0.81541011	     -1.15203699	     53.22750048	    -33.31220314	    -21.68637623	     32.93451571	     -0.00611080	     -1.83801164	      0.57481574	      0.03710253	     16.29940912	      0.00000000	     47.80385136	    -22.68637397	    -20.99330901	     23.09232252	     -1.01282889	      5.99660573	      0.40303706	     -6.14452356	     19.86251751	      0.00000000
      3.68500000	      2.26160753	    -29.54951695	      4.11667172	      0.02346131	      0.81470049	     -1.15146982	     52.53864672	    -33.43244434	    -24.00555788	     33.03643252	     -0.02033759	     -1.11851672	      0.57659452	      0.10256728	     15.96983585	      0.00000000	     49.41085224	    -22.99731154	    -19.04276966	     23.85756616	     -0.92652773	      5.92995038	      0.41639308	     -5.97492520	     19.78931028	      0.00000000
      3.69000000	      1.52438038	    -31.28060898	      4.65559427	      0.01871680	      0.81268145	     -1.15126708	     56.38940039	    -33.38859585	    -20.69811304	     34.33863987	      0.25110880	     -1.75221019	      0.59932233	      0.20388976	     15.23371834	      0.00000000	     51.33984335	    -23.29698755	    -19.71916462	     24.76663796	     -0.57186846	      5.61860952	      0.43225938	     -5.74695293	     18.93521691	      0.00000000
      3.69500000	      1.85155902	    -30.57639241	      5.48826728	      0.01917153	      0.81162610	     -1.15185615	     56.31247364	    -34.46222382	    -20.71064489	     35.03865406	      0.21798857	     -1.17784822	      0.61153988	      0.49006747	     15.63409627	      0.00000000	     50.57774274	    -22.63065874	    -20.71618382	     24.88211673	     -0.85221586	      5.34270449	      0.43427486	     -5.71755791	     19.61713419	      0.00000000
      3.70000000	      2.21090774	    -30.72278159	      5.20715326	      0.01815082	      0.81058887	     -1.15142907	     56.38722195	    -34.55074739	    -21.43520404	     35.41269821	      0.20466873	     -0.72622118	      0.61806818	      0.58351021	     15.33379750	      0.00000000	     51.42701671	    -22.94278479	    -20.05271716	     25.49197582	     -0.71162231	      5.09789469	      0.44491891	     -5.53551279	     19.52733632	      0.00000000
      3.70500000	      2.40848713	    -31.10390528	      5.41807100	      0.01644964	      0.80914768	     -1.15131756	     57.39220290	    -34.89219126	    -21.06103598	     36.10978828	      0.27156711	     -0.46383415	      0.63023470	      0.68726961	     14.98236027	      0.00000000	     52.32567611	    -22.98374150	    -20.00228939	     26.15013250	     -0.63579204	      4.82537329	      0.45640591	     -5.43695772	     19.38096253	      0.00000000
      3.71000000	      3.04765231	    -31.29051090	      5.33047655	      0.01555096	      0.80785367	     -1.15112990	     57.50801214	    -35.34123163	    -22.00889231	     36.64867247	      0.27858233	      0.10715161	      0.63964000	      0.93661102	     14.82245272	      0.00000000	     53.34688558	    -23.00294084	    -19.22743401	     26.81314043	     -0.60445076	      4.55921026	      0.46797758	     -5.19931727	     19.37249719	      0.00000000
